# xmcd CD database file
#
# Track frame offsets:
#	150
#	19617
#	38442
#	55632
#	73917
#	92750
#	106172
#	125865
#	139615
#	156220
#
# Disc length: 2269 seconds
#
# Revision: 0
# Processed by: cddbd v1.5.2PL0 Copyright (c) Steve Scherf et al.
# Submitted via: CdAid (MTCDDB.DLL V2003.12.21)
#
DISCID=7e08db0a
DTITLE=Mara Foroni - Valentia
DYEAR=1996
DGENRE=Country
TTITLE0=Valentia
TTITLE1=Paisagem
TTITLE2=Astrais
TTITLE3=Quero Sonhar
TTITLE4=Viva a Voz
TTITLE5=Minha Imagem
TTITLE6=Luz
TTITLE7=Elas
TTITLE8=Espanhola
TTITLE9=Muito Tanto
EXTD=ID3G:   2 YEAR: 1996
EXTT0=
EXTT1=
EXTT2=
EXTT3=
EXTT4=
EXTT5=
EXTT6=
EXTT7=
EXTT8=
EXTT9=
PLAYORDER=
